<?xml version="1.0" encoding="utf-8"?>
<!-- Generator: Adobe Illustrator 24.0.2, SVG Export Plug-In . SVG Version: 6.00 Build 0)  -->
<svg version="1.1" id="Layer_1" xmlns="http://www.w3.org/2000/svg" xmlns:xlink="http://www.w3.org/1999/xlink" x="0px" y="0px"
	 viewBox="0 0 80 80" style="enable-background:new 0 0 80 80;" xml:space="preserve">
<style type="text/css">
	.st0{fill:#2BC600;}
	.st1{fill:#13355A;}
	.st2{fill:url(#SVGID_1_);}
	.st3{fill:#FFFFFF;}
	.st4{fill:url(#SVGID_2_);}
	.st5{fill:url(#SVGID_3_);}
	.st6{fill:url(#SVGID_4_);}
	.st7{fill:url(#SVGID_5_);}
	.st8{fill:url(#SVGID_6_);}
	.st9{fill:url(#SVGID_7_);}
	.st10{fill:url(#SVGID_8_);}
	.st11{fill:url(#SVGID_9_);}
	.st12{fill:url(#SVGID_10_);}
	.st13{fill:url(#SVGID_11_);}
	.st14{fill:url(#SVGID_12_);}
	.st15{fill:#123453;}
</style>
<g>
	<g>
		<g>
			<path class="st0" d="M-73.6,30.7h4.5c0.8,0,1.4-0.6,1.4-1.4c0-0.8-0.6-1.4-1.4-1.4h-2.3v-1.8c0-0.8-0.6-1.4-1.4-1.4
				c-0.8,0-1.4,0.6-1.4,1.4V28c-2,0.2-3.6,2-3.6,4.1v1.4c0,0.8,0.6,1.4,1.4,1.4h5.9c0,0.8-0.6,1.4-1.4,1.4h-4.5
				c-0.8,0-1.4,0.6-1.4,1.4c0,0.8,0.6,1.4,1.4,1.4h2.3v1.8c0,0.8,0.6,1.4,1.4,1.4c0.8,0,1.4-0.6,1.4-1.4v-1.8c2-0.2,3.6-2,3.6-4.1
				v-1.4c0-0.8-0.6-1.4-1.4-1.4H-75C-75,31.3-74.4,30.7-73.6,30.7z"/>
			<path class="st0" d="M-37.8,19.3h-6.6L-40,15c1.6-1.6,1.6-4.2,0-5.8C-40.8,8.4-41.8,8-42.9,8s-2.1,0.4-2.9,1.2l-10.1,10.1h-26.3
				c-0.8,0-1.4,0.6-1.4,1.4v25.4c0,0.8,0.6,1.4,1.4,1.4h44.5c0.8,0,1.4-0.6,1.4-1.4V20.7C-36.4,20-37,19.3-37.8,19.3z M-56.8,27.9
				l-2.9,1l1-2.9l11.6-11.6l1.9,1.9L-56.8,27.9z M-42.9,10.7c0.4,0,0.7,0.1,1,0.4c0.5,0.5,0.5,1.4,0,1.9l-1.3,1.3l-1.9-1.9l1.3-1.3
				C-43.6,10.9-43.2,10.7-42.9,10.7z M-39.1,44.8h-41.7V22.1h22.2l-2.2,2.2c-0.1,0.1-0.3,0.3-0.3,0.5l-1.9,5.8
				c-0.1,0.4-0.1,1,0.2,1.4c0.3,0.3,0.7,0.6,1.1,0.6h18.1c0.8,0,1.4-0.6,1.4-1.4c0-0.8-0.6-1.4-1.4-1.4h-11.1l7.7-7.7h8V44.8z"/>
			<path class="st0" d="M-43.7,35.7h-10.9c-0.8,0-1.4,0.6-1.4,1.4s0.6,1.4,1.4,1.4h10.9c0.8,0,1.4-0.6,1.4-1.4S-42.9,35.7-43.7,35.7
				z"/>
		</g>
	</g>
	<circle class="st1" cx="-60" cy="55.8" r="15.5"/>
	<g>
		<g>
			<linearGradient id="SVGID_1_" gradientUnits="userSpaceOnUse" x1="-80.5115" y1="67.6137" x2="-51.4279" y2="50.8223">
				<stop  offset="0" style="stop-color:#123453"/>
				<stop  offset="1" style="stop-color:#2BC600"/>
			</linearGradient>
			<path class="st2" d="M-60,72c-8.9,0-16.2-7.3-16.2-16.2s7.3-16.2,16.2-16.2s16.2,7.3,16.2,16.2S-51.1,72-60,72z M-60,41.1
				c-8.1,0-14.7,6.6-14.7,14.7s6.6,14.7,14.7,14.7s14.7-6.6,14.7-14.7S-51.9,41.1-60,41.1z"/>
		</g>
	</g>
	<g>
		<path class="st3" d="M-55.5,63.8c0-0.8-0.7-1.5-1.5-1.5h-6c-0.8,0-1.5,0.7-1.5,1.5v0.5h9V63.8z"/>
		<path class="st3" d="M-52.5,51.3v-1h-6.1c-0.2-0.4-0.5-0.8-0.9-0.9v-2.1h-1v2.1c-0.4,0.2-0.8,0.5-0.9,0.9h-6.1v1h1.3l-2.3,5.5
			c0,1.4,1.1,2.5,2.5,2.5h1c1.4,0,2.5-1.1,2.5-2.5l-2.3-5.5h3.4c0.2,0.4,0.5,0.8,0.9,0.9v7.2c-1,0.2-1.8,1-2,1.9h4.9
			c-0.2-1-1-1.7-2-1.9v-7.2c0.4-0.2,0.8-0.5,0.9-0.9h3.4l-2.3,5.5c0,1.4,1.1,2.5,2.5,2.5h1c1.4,0,2.5-1.1,2.5-2.5l-2.3-5.5H-52.5z
			 M-63.8,56.3h-3.5l1.8-4.2L-63.8,56.3z M-52.7,56.3h-3.5l1.8-4.2L-52.7,56.3z"/>
	</g>
</g>
<g>
	<g>
		<g>
			<path class="st0" d="M57.6,27.5c0.7,0,1.3-0.6,1.3-1.3v-3.8h1.3c0.7,0,1.3-0.6,1.3-1.3V17c0-0.5-0.3-1-0.8-1.2L40.4,8.2
				c-0.3-0.1-0.6-0.1-0.9,0l-20.2,7.6c-0.5,0.2-0.8,0.7-0.8,1.2v4.2c0,0.7,0.6,1.3,1.3,1.3h1.3v3.8c0,0.7,0.6,1.3,1.3,1.3h0.4v11.1
				h-0.4c-0.7,0-1.3,0.6-1.3,1.3v3.8h-1.3c-0.7,0-1.3,0.6-1.3,1.3v5c0,0.7,0.6,1.3,1.3,1.3h40.5c0.7,0,1.3-0.6,1.3-1.3v-5
				c0-0.7-0.6-1.3-1.3-1.3h-1.3v-3.8c0-0.7-0.6-1.3-1.3-1.3h-0.4V27.5H57.6z M59,46.1v2.5H21v-2.5H59z M23.6,24.9v-2.5h5.9v2.5H23.6
				z M27.8,27.5v11.1h-2.5V27.5H27.8z M29.5,41.1v2.5h-5.9v-2.5H29.5z M35.8,27.5h0.4v11.1h-0.4c-0.7,0-1.3,0.6-1.3,1.3v3.8H32v-3.8
				c0-0.7-0.6-1.3-1.3-1.3h-0.4V27.5h0.4c0.7,0,1.3-0.6,1.3-1.3v-3.8h2.5v3.8C34.5,26.9,35.1,27.5,35.8,27.5z M37.1,24.9v-2.5h5.9
				v2.5H37.1z M41.3,27.5v11.1h-2.5V27.5H41.3z M42.9,41.1v2.5h-5.9v-2.5H42.9z M49.2,27.5h0.4v11.1h-0.4c-0.7,0-1.3,0.6-1.3,1.3
				v3.8h-2.5v-3.8c0-0.7-0.6-1.3-1.3-1.3h-0.4V27.5h0.4c0.7,0,1.3-0.6,1.3-1.3v-3.8H48v3.8C48,26.9,48.5,27.5,49.2,27.5z M50.5,24.9
				v-2.5h5.9v2.5H50.5z M54.7,27.5v11.1h-2.5V27.5H54.7z M56.4,41.1v2.5h-5.9v-2.5H56.4z M21,19.9v-2.1l19-7.1l19,7.1v2.1H21z"/>
			<path class="st0" d="M45,14.9H35c-0.7,0-1.3,0.6-1.3,1.3c0,0.7,0.6,1.3,1.3,1.3H45c0.7,0,1.3-0.6,1.3-1.3
				C46.3,15.4,45.7,14.9,45,14.9z"/>
		</g>
	</g>
	<circle class="st1" cx="40" cy="55.9" r="15.5"/>
	<g>
		<g>
			<linearGradient id="SVGID_2_" gradientUnits="userSpaceOnUse" x1="19.4831" y1="67.7416" x2="48.5747" y2="50.9456">
				<stop  offset="0" style="stop-color:#123453"/>
				<stop  offset="1" style="stop-color:#2BC600"/>
			</linearGradient>
			<path class="st4" d="M40,72.1c-9,0-16.2-7.3-16.2-16.2S31,39.7,40,39.7s16.2,7.3,16.2,16.2S49,72.1,40,72.1z M40,41.2
				c-8.1,0-14.7,6.6-14.7,14.7S31.9,70.6,40,70.6S54.7,64,54.7,55.9S48.1,41.2,40,41.2z"/>
		</g>
	</g>
	<g>
		<path class="st3" d="M44.5,63.9c0-0.8-0.7-1.5-1.5-1.5h-6c-0.8,0-1.5,0.7-1.5,1.5v0.5h9V63.9z"/>
		<path class="st3" d="M47.5,51.4v-1h-6.1c-0.2-0.4-0.5-0.8-0.9-0.9v-2.1h-1v2.1c-0.4,0.2-0.8,0.5-0.9,0.9h-6.1v1h1.3l-2.3,5.5
			c0,1.4,1.1,2.5,2.5,2.5h1c1.4,0,2.5-1.1,2.5-2.5l-2.3-5.5h3.4c0.2,0.4,0.5,0.8,0.9,0.9v7.2c-1,0.2-1.8,1-2,1.9h4.9
			c-0.2-1-1-1.7-2-1.9v-7.2c0.4-0.2,0.8-0.5,0.9-0.9h3.4l-2.3,5.5c0,1.4,1.1,2.5,2.5,2.5h1c1.4,0,2.5-1.1,2.5-2.5l-2.3-5.5H47.5z
			 M36.2,56.4h-3.5l1.8-4.2L36.2,56.4z M47.3,56.4h-3.5l1.8-4.2L47.3,56.4z"/>
	</g>
</g>
<g>
	<path class="st0" d="M155.1,17.2H147v-3.3c0-1.6-1.3-2.8-2.8-2.8h-8.3c-1.6,0-2.8,1.3-2.8,2.8v3.3h-8.1c-2.1,0-3.7,1.7-3.7,3.7
		v19.2c0,2.1,1.7,3.7,3.7,3.7h30.1c2.1,0,3.7-1.7,3.7-3.7V21C158.8,18.9,157.1,17.2,155.1,17.2L155.1,17.2z M135.4,13.9
		c0-0.2,0.2-0.4,0.4-0.4h8.3c0.2,0,0.4,0.2,0.4,0.4v3.3h-9.1V13.9z M123.6,21c0-0.7,0.6-1.4,1.4-1.4h30.1c0.7,0,1.4,0.6,1.4,1.4v1.8
		c0,1.7-1.1,3.1-2.7,3.6L141.2,30c-0.8,0.2-1.6,0.2-2.4,0l-12.5-3.6c-1.6-0.5-2.7-1.9-2.7-3.6V21z M155.1,41.5h-30.1
		c-0.7,0-1.4-0.6-1.4-1.4V27.6c0.6,0.5,1.3,0.8,2,1c13.8,4,13.1,3.9,14.4,3.9c1.3,0,0.6,0.1,14.4-3.9c0.7-0.2,1.4-0.6,2-1v12.5
		C156.4,40.9,155.8,41.5,155.1,41.5L155.1,41.5z"/>
	<circle class="st1" cx="140" cy="55.8" r="15.3"/>
	<g>
		<g>
			<linearGradient id="SVGID_3_" gradientUnits="userSpaceOnUse" x1="119.6827" y1="67.5761" x2="148.4912" y2="50.9435">
				<stop  offset="0" style="stop-color:#123453"/>
				<stop  offset="1" style="stop-color:#2BC600"/>
			</linearGradient>
			<path class="st5" d="M140,71.9c-8.9,0-16.1-7.2-16.1-16.1s7.2-16.1,16.1-16.1s16.1,7.2,16.1,16.1S148.9,71.9,140,71.9z M140,41.3
				c-8,0-14.5,6.5-14.5,14.5S132,70.4,140,70.4s14.5-6.5,14.5-14.5S148,41.3,140,41.3z"/>
		</g>
	</g>
	<g>
		<path class="st3" d="M144.5,63.8c0-0.8-0.7-1.5-1.5-1.5h-6c-0.8,0-1.5,0.7-1.5,1.5v0.5h8.9V63.8z"/>
		<path class="st3" d="M147.5,51.4v-1h-6.1c-0.1-0.4-0.5-0.8-0.9-0.9v-2.1h-1v2.1c-0.4,0.1-0.8,0.5-0.9,0.9h-6.1v1h1.2l-2.2,5.5
			c0,1.4,1.1,2.5,2.5,2.5h1c1.4,0,2.5-1.1,2.5-2.5l-2.2-5.5h3.4c0.1,0.4,0.5,0.8,0.9,0.9v7.1c-1,0.2-1.7,1-1.9,1.9h4.9
			c-0.2-1-1-1.7-1.9-1.9v-7.1c0.4-0.1,0.8-0.5,0.9-0.9h3.3l-2.2,5.5c0,1.4,1.1,2.5,2.5,2.5h1c1.4,0,2.5-1.1,2.5-2.5l-2.2-5.5H147.5z
			 M136.2,56.3h-3.5l1.7-4.2L136.2,56.3z M147.2,56.3h-3.5l1.7-4.2L147.2,56.3z"/>
	</g>
</g>
<g>
	<g>
		<g>
			<path class="st0" d="M259,33.1c-0.2-1.1-0.9-2-1.9-2.5c-1.3-0.6-2.8-0.3-3.8,0.7l-4.8,4.8c-0.2,0.2-0.4,0.3-0.6,0.5
				c0.1-0.3,0.1-0.5,0.1-0.8c0-0.9-0.3-1.7-1-2.4c-0.6-0.6-1.5-1-2.4-1l-3.4,0c-2.8-1.6-6.1-1.8-9-0.7v-1.2c0-0.6-0.5-1.1-1.1-1.1
				h-8.9c-0.6,0-1.1,0.5-1.1,1.1v14.9c0,0.6,0.5,1.1,1.1,1.1h8.9c0.6,0,1.1-0.5,1.1-1.1v-1.6c2.7,0.7,5.5,1,8.3,1
				c2.6,0,5.2-0.3,7.7-0.8c1.6-0.4,3-1.1,4.2-2.3l5.7-5.7C258.8,35.3,259.2,34.2,259,33.1L259,33.1z M229.9,44.4h-6.7V31.7h6.7
				L229.9,44.4L229.9,44.4z M256.4,34.5l-5.7,5.7c-0.9,0.8-1.9,1.4-3.1,1.7c-5,1.1-10.2,1-15.2-0.2l-0.3-0.1v-7.4
				c2.6-1.3,5.6-1.2,8.1,0.3c0.2,0.1,0.4,0.2,0.6,0.2l3.7,0c0.3,0,0.6,0.1,0.8,0.3c0.2,0.2,0.3,0.5,0.3,0.8c0,0.3-0.1,0.6-0.3,0.8
				c-0.2,0.2-0.5,0.3-0.7,0.3h-5.3c-0.6,0-1.1,0.5-1.1,1.1c0,0.6,0.5,1.1,1.1,1.1h7.2c1.3,0,2.5-0.5,3.4-1.4l4.8-4.8
				c0.3-0.3,0.8-0.4,1.3-0.2c0.3,0.2,0.6,0.5,0.6,0.8C256.8,33.9,256.7,34.2,256.4,34.5L256.4,34.5z"/>
			<path class="st0" d="M240,22.6c2.3,0,4.1-1.8,4.1-4.1s-1.8-4.1-4.1-4.1s-4.1,1.8-4.1,4.1S237.7,22.6,240,22.6z M240,16.7
				c1,0,1.9,0.8,1.9,1.9c0,1-0.8,1.9-1.9,1.9s-1.9-0.8-1.9-1.9C238.1,17.5,239,16.7,240,16.7z"/>
			<path class="st0" d="M230.2,21.6l2.2,3.9c0.3,0.5,1,0.7,1.5,0.4l0.9-0.5c0.6,0.4,1.2,0.8,1.8,1v1.1c0,0.6,0.5,1.1,1.1,1.1h4.5
				c0.6,0,1.1-0.5,1.1-1.1v-1.1c0.6-0.3,1.2-0.6,1.8-1l0.9,0.5c0.5,0.3,1.2,0.1,1.5-0.4l2.2-3.9c0.1-0.3,0.2-0.6,0.1-0.8
				c-0.1-0.3-0.3-0.5-0.5-0.7l-0.9-0.5c0-0.3,0.1-0.7,0.1-1c0-0.3,0-0.7-0.1-1l0.9-0.5c0.3-0.1,0.4-0.4,0.5-0.7
				c0.1-0.3,0-0.6-0.1-0.8l-2.2-3.9c-0.3-0.5-1-0.7-1.5-0.4l-0.9,0.5c-0.6-0.4-1.2-0.8-1.8-1V9.6c0-0.6-0.5-1.1-1.1-1.1h-4.5
				c-0.6,0-1.1,0.5-1.1,1.1v1.1c-0.6,0.3-1.2,0.6-1.8,1l-0.9-0.5c-0.5-0.3-1.2-0.1-1.5,0.4l-2.2,3.9c-0.3,0.5-0.1,1.2,0.4,1.5
				l0.9,0.5c0,0.3-0.1,0.7-0.1,1s0,0.7,0.1,1l-0.9,0.5C230,20.4,229.9,21.1,230.2,21.6L230.2,21.6z M233.8,19.9
				c-0.1-0.5-0.2-0.9-0.2-1.4s0.1-0.9,0.2-1.4c0.1-0.5-0.1-1-0.5-1.2l-0.6-0.4l1.1-1.9l0.6,0.4c0.4,0.2,1,0.2,1.3-0.1
				c0.7-0.6,1.5-1.1,2.4-1.4c0.5-0.1,0.8-0.6,0.8-1.1v-0.7h2.2v0.7c0,0.5,0.3,0.9,0.8,1.1c0.9,0.3,1.7,0.7,2.4,1.4
				c0.4,0.3,0.9,0.4,1.3,0.1l0.6-0.4l1.1,1.9l-0.6,0.4c-0.4,0.2-0.6,0.7-0.5,1.2c0.1,0.5,0.2,0.9,0.2,1.4c0,0.4-0.1,0.9-0.2,1.4
				c-0.1,0.5,0.1,1,0.5,1.2l0.6,0.4l-1.1,1.9l-0.6-0.4c-0.4-0.2-1-0.2-1.3,0.1c-0.7,0.6-1.5,1.1-2.4,1.4c-0.5,0.1-0.8,0.6-0.8,1.1
				v0.7h-2.2v-0.7c0-0.5-0.3-0.9-0.8-1.1c-0.9-0.3-1.7-0.7-2.4-1.4c-0.4-0.3-0.9-0.4-1.3-0.1l-0.6,0.4l-1.1-1.9l0.6-0.4
				C233.7,20.9,233.9,20.4,233.8,19.9L233.8,19.9z"/>
		</g>
	</g>
	<circle class="st1" cx="240" cy="55.8" r="15.4"/>
	<g>
		<g>
			<linearGradient id="SVGID_4_" gradientUnits="userSpaceOnUse" x1="219.6234" y1="67.5978" x2="248.5161" y2="50.9166">
				<stop  offset="0" style="stop-color:#123453"/>
				<stop  offset="1" style="stop-color:#2BC600"/>
			</linearGradient>
			<path class="st6" d="M240,72c-8.9,0-16.1-7.2-16.1-16.1s7.2-16.1,16.1-16.1s16.1,7.2,16.1,16.1S248.9,72,240,72z M240,41.2
				c-8,0-14.6,6.5-14.6,14.6S232,70.4,240,70.4s14.6-6.5,14.6-14.6S248,41.2,240,41.2z"/>
		</g>
	</g>
	<g>
		<path class="st3" d="M244.5,63.8c0-0.8-0.7-1.5-1.5-1.5h-6c-0.8,0-1.5,0.7-1.5,1.5v0.5h9V63.8z"/>
		<path class="st3" d="M247.5,51.4v-1h-6.1c-0.2-0.4-0.5-0.8-0.9-0.9v-2.1h-1v2.1c-0.4,0.2-0.8,0.5-0.9,0.9h-6.1v1h1.2l-2.2,5.5
			c0,1.4,1.1,2.5,2.5,2.5h1c1.4,0,2.5-1.1,2.5-2.5l-2.2-5.5h3.4c0.2,0.4,0.5,0.8,0.9,0.9v7.1c-1,0.2-1.7,1-1.9,1.9h4.9
			c-0.2-1-1-1.7-1.9-1.9v-7.1c0.4-0.2,0.8-0.5,0.9-0.9h3.4l-2.2,5.5c0,1.4,1.1,2.5,2.5,2.5h1c1.4,0,2.5-1.1,2.5-2.5l-2.2-5.5H247.5z
			 M236.2,56.3h-3.5l1.7-4.2L236.2,56.3z M247.2,56.3h-3.5l1.7-4.2L247.2,56.3z"/>
	</g>
</g>
<g>
	<g>
		<g>
			<path class="st0" d="M361.4,34.8c0-1.3-1.1-2.4-2.4-2.4h-3.9v-6.6c0-0.4-0.2-0.7-0.5-1l-16-12.1c-0.4-0.3-1-0.3-1.4,0l-16,12.1
				c-0.3,0.2-0.5,0.6-0.5,1v20.4c0,0.7,0.5,1.2,1.2,1.2h18.7v1.5c0,1.3,1.1,2.4,2.4,2.4H359c1.3,0,2.4-1.1,2.4-2.4v-3.1
				c0-0.4-0.1-0.8-0.3-1.2c0.2-0.3,0.3-0.7,0.3-1.2v-3.1c0-0.4-0.1-0.8-0.3-1.2c0.2-0.3,0.3-0.7,0.3-1.2V34.8z M340.5,34.8v3.1
				c0,0.4,0.1,0.8,0.3,1.2c-0.2,0.3-0.3,0.7-0.3,1.2v3.1c0,0.4,0.1,0.8,0.3,1.2c-0.1,0.1-0.1,0.3-0.2,0.4H323V26.4l14.8-11.2
				l14.8,11.2v6.1h-9.8C341.6,32.4,340.5,33.5,340.5,34.8z M359,48.8h-16.1v-3.1H359V48.8z M359,43.3h-16.1v-3.1H359V43.3z
				 M359,37.9h-16.1v-3.1H359V37.9z"/>
			<path class="st0" d="M322.6,21.6l15.3-11.5l15.3,11.5c0.2,0.2,0.5,0.2,0.7,0.2c0.4,0,0.7-0.2,1-0.5c0.4-0.5,0.3-1.3-0.2-1.7
				l-16-12.1c-0.4-0.3-1-0.3-1.4,0l-16,12.1c-0.5,0.4-0.6,1.1-0.2,1.7C321.3,21.9,322,22,322.6,21.6z"/>
		</g>
	</g>
	<g>
		<circle class="st1" cx="340" cy="55.8" r="15.4"/>
		<g>
			<g>
				<linearGradient id="SVGID_5_" gradientUnits="userSpaceOnUse" x1="319.5838" y1="67.6341" x2="348.5326" y2="50.9205">
					<stop  offset="0" style="stop-color:#123453"/>
					<stop  offset="1" style="stop-color:#2BC600"/>
				</linearGradient>
				<path class="st7" d="M340,72c-8.9,0-16.2-7.2-16.2-16.2s7.2-16.2,16.2-16.2s16.2,7.2,16.2,16.2S348.9,72,340,72z M340,41.2
					c-8.1,0-14.6,6.6-14.6,14.6s6.6,14.6,14.6,14.6s14.6-6.6,14.6-14.6S348.1,41.2,340,41.2z"/>
			</g>
		</g>
		<g>
			<path class="st3" d="M344.5,63.8c0-0.8-0.7-1.5-1.5-1.5h-6c-0.8,0-1.5,0.7-1.5,1.5v0.5h9V63.8z"/>
			<path class="st3" d="M347.5,51.4v-1h-6.1c-0.2-0.4-0.5-0.8-0.9-0.9v-2.1h-1v2.1c-0.4,0.2-0.8,0.5-0.9,0.9h-6.1v1h1.2l-2.2,5.5
				c0,1.4,1.1,2.5,2.5,2.5h1c1.4,0,2.5-1.1,2.5-2.5l-2.3-5.5h3.4c0.2,0.4,0.5,0.8,0.9,0.9v7.1c-1,0.2-1.7,1-1.9,1.9h4.9
				c-0.2-1-1-1.7-1.9-1.9v-7.1c0.4-0.2,0.8-0.5,0.9-0.9h3.4l-2.2,5.5c0,1.4,1.1,2.5,2.5,2.5h1c1.4,0,2.5-1.1,2.5-2.5l-2.3-5.5H347.5
				z M336.2,56.3h-3.5l1.7-4.2L336.2,56.3z M347.3,56.3h-3.5l1.7-4.2L347.3,56.3z"/>
		</g>
	</g>
</g>
<g>
	<g>
		<path class="st0" d="M457.5,17.5v-4.9h-2.8v4.9h-3.5V7l-22.5,5.3v5.2h-3.5v-4.9h-2.8v4.9h-6.2v33.9h47.5V17.5L457.5,17.5z
			 M419.1,48.6V20.3h9.7v28.3H419.1z M441.4,48.6h-2.8v-2.8h2.8V48.6z M448.5,48.6h-4.3V43h-8.3v5.6h-4.3V14.5l16.9-4L448.5,48.6
			L448.5,48.6z M460.9,48.6h-9.7V20.3h9.7V48.6z"/>
		<path class="st0" d="M434.3,18h4.3v2.8h-4.3V18z"/>
		<path class="st0" d="M441.4,18h4.3v2.8h-4.3V18z"/>
		<path class="st0" d="M434.3,23.6h4.3v2.8h-4.3V23.6z"/>
		<path class="st0" d="M441.4,23.6h4.3v2.8h-4.3V23.6z"/>
		<path class="st0" d="M434.3,29.1h4.3v2.8h-4.3V29.1z"/>
		<path class="st0" d="M441.4,29.1h4.3v2.8h-4.3V29.1z"/>
		<path class="st0" d="M434.3,34.7h4.3v2.8h-4.3V34.7z"/>
		<path class="st0" d="M421.8,23.6h4.3v2.8h-4.3V23.6z"/>
		<path class="st0" d="M421.8,29.1h4.3v2.8h-4.3V29.1z"/>
		<path class="st0" d="M421.8,34.7h4.3v2.8h-4.3V34.7z"/>
		<path class="st0" d="M454,23.6h4.3v2.8H454V23.6z"/>
		<path class="st0" d="M454,29.1h4.3v2.8H454V29.1z"/>
		<path class="st0" d="M454,34.7h4.3v2.8H454V34.7z"/>
		<path class="st0" d="M421.8,40.2h4.3V43h-4.3V40.2z"/>
		<path class="st0" d="M454,40.2h4.3V43H454V40.2z"/>
		<path class="st0" d="M441.4,34.7h4.3v2.8h-4.3V34.7z"/>
	</g>
</g>
<circle class="st1" cx="440" cy="55.8" r="15.4"/>
<g>
	<g>
		<linearGradient id="SVGID_6_" gradientUnits="userSpaceOnUse" x1="419.5728" y1="67.6317" x2="448.5372" y2="50.9091">
			<stop  offset="0" style="stop-color:#123453"/>
			<stop  offset="1" style="stop-color:#2BC600"/>
		</linearGradient>
		<path class="st8" d="M440,72c-8.9,0-16.2-7.2-16.2-16.2s7.2-16.2,16.2-16.2s16.2,7.2,16.2,16.2S448.9,72,440,72z M440,41.2
			c-8.1,0-14.6,6.6-14.6,14.6s6.6,14.6,14.6,14.6s14.6-6.6,14.6-14.6S448.1,41.2,440,41.2z"/>
	</g>
</g>
<g>
	<path class="st3" d="M444.5,63.8c0-0.8-0.7-1.5-1.5-1.5h-6c-0.8,0-1.5,0.7-1.5,1.5v0.5h9V63.8z"/>
	<path class="st3" d="M447.5,51.4v-1h-6.1c-0.2-0.4-0.5-0.8-0.9-0.9v-2.1h-1v2.1c-0.4,0.2-0.8,0.5-0.9,0.9h-6.1v1h1.2l-2.2,5.5
		c0,1.4,1.1,2.5,2.5,2.5h1c1.4,0,2.5-1.1,2.5-2.5l-2.3-5.5h3.4c0.2,0.4,0.5,0.8,0.9,0.9v7.1c-1,0.2-1.7,1-1.9,1.9h4.9
		c-0.2-1-1-1.7-1.9-1.9v-7.1c0.4-0.2,0.8-0.5,0.9-0.9h3.4l-2.2,5.5c0,1.4,1.1,2.5,2.5,2.5h1c1.4,0,2.5-1.1,2.5-2.5l-2.3-5.5H447.5z
		 M436.2,56.3h-3.5l1.7-4.2L436.2,56.3z M447.3,56.3h-3.5l1.7-4.2L447.3,56.3z"/>
</g>
<g>
	<g>
		<path class="st0" d="M558.4,8.9L558.4,8.9h-30.1c-3,0-5.5,2.4-5.5,5.4l-0.2,26.8h-5.2c-0.8,0-1.5,0.7-1.5,1.5v3.6
			c0,3.8,3,7,6.8,7.1v0h0.3c0,0,0,0,0,0v0h25.1v0c0.1,0,0.2,0,0.4,0c3.9,0,7.1-3.2,7.1-7.1V22.8h6.9c0.8,0,1.5-0.7,1.5-1.5v-6.7
			C564.1,11.4,561.5,8.9,558.4,8.9z M518.9,46.2v-2.1h22.5v2.1c0,1.5,0.5,3,1.3,4.1h-19.7C520.8,50.4,518.9,48.5,518.9,46.2z
			 M552.7,46.2c0,2.3-1.9,4.1-4.1,4.1c-2.3,0-4.1-1.9-4.1-4.1v-3.6c0-0.8-0.7-1.5-1.5-1.5h-17.3l0.2-26.7c0-1.4,1.1-2.4,2.5-2.4
			h25.1c-0.4,0.8-0.7,1.7-0.7,2.7V46.2z M555.7,19.8v-5.2c0-1.5,1.2-2.7,2.7-2.7s2.7,1.2,2.7,2.7v5.2H555.7z"/>
		<path class="st0" d="M530.5,20.2h7.7c0.8,0,1.5-0.7,1.5-1.5c0-0.8-0.7-1.5-1.5-1.5h-7.7c-0.8,0-1.5,0.7-1.5,1.5
			C529,19.6,529.6,20.2,530.5,20.2z"/>
		<path class="st0" d="M547.2,23.2h-16.7c-0.8,0-1.5,0.7-1.5,1.5c0,0.8,0.7,1.5,1.5,1.5h16.7c0.8,0,1.5-0.7,1.5-1.5
			C548.7,23.9,548,23.2,547.2,23.2z"/>
		<path class="st0" d="M547.2,29.2h-16.7c-0.8,0-1.5,0.7-1.5,1.5c0,0.8,0.7,1.5,1.5,1.5h16.7c0.8,0,1.5-0.7,1.5-1.5
			C548.7,29.9,548,29.2,547.2,29.2z"/>
		<path class="st0" d="M547.2,35.2h-16.7c-0.8,0-1.5,0.7-1.5,1.5c0,0.8,0.7,1.5,1.5,1.5h16.7c0.8,0,1.5-0.7,1.5-1.5
			C548.7,35.9,548,35.2,547.2,35.2z"/>
	</g>
</g>
<circle class="st1" cx="540" cy="55.8" r="15.4"/>
<g>
	<g>
		<linearGradient id="SVGID_7_" gradientUnits="userSpaceOnUse" x1="519.5751" y1="67.6322" x2="548.5363" y2="50.9115">
			<stop  offset="0" style="stop-color:#123453"/>
			<stop  offset="1" style="stop-color:#2BC600"/>
		</linearGradient>
		<path class="st9" d="M540,72c-8.9,0-16.2-7.2-16.2-16.2s7.2-16.2,16.2-16.2s16.2,7.2,16.2,16.2S548.9,72,540,72z M540,41.2
			c-8.1,0-14.6,6.6-14.6,14.6s6.6,14.6,14.6,14.6s14.6-6.6,14.6-14.6S548.1,41.2,540,41.2z"/>
	</g>
</g>
<g>
	<path class="st3" d="M544.5,63.8c0-0.8-0.7-1.5-1.5-1.5h-6c-0.8,0-1.5,0.7-1.5,1.5v0.5h9V63.8z"/>
	<path class="st3" d="M547.5,51.4v-1h-6.1c-0.2-0.4-0.5-0.8-0.9-0.9v-2.1h-1v2.1c-0.4,0.2-0.8,0.5-0.9,0.9h-6.1v1h1.2l-2.2,5.5
		c0,1.4,1.1,2.5,2.5,2.5h1c1.4,0,2.5-1.1,2.5-2.5l-2.3-5.5h3.4c0.2,0.4,0.5,0.8,0.9,0.9v7.1c-1,0.2-1.7,1-1.9,1.9h4.9
		c-0.2-1-1-1.7-1.9-1.9v-7.1c0.4-0.2,0.8-0.5,0.9-0.9h3.4l-2.2,5.5c0,1.4,1.1,2.5,2.5,2.5h1c1.4,0,2.5-1.1,2.5-2.5l-2.3-5.5H547.5z
		 M536.2,56.3h-3.5l1.7-4.2L536.2,56.3z M547.3,56.3h-3.5l1.7-4.2L547.3,56.3z"/>
</g>
<g>
	<g>
		<g>
			<path class="st0" d="M664.4,16.1l-1.7-1.7l-2.1,2.1c-1.4-0.8-3.1-0.6-4.3,0.6l-0.7,0.7V7.6h-24.9l-6.2,6.2v34.1h31.1V28.5
				l6.1-6.1c1.2-1.2,1.3-2.9,0.6-4.3L664.4,16.1z M641.1,36.1l1.7,1.7l-2.9,1.2L641.1,36.1z M644.6,36.3l-2-2l13-13l2,2L644.6,36.3z
				 M631.4,10.2v4.2h-4.2L631.4,10.2z M653.3,45.5h-26.4V16.8h6.9V9.9h19.5v10.2l-3.7,3.7h-19v2.4h16.6l-2.4,2.4h-14.2v2.4h11.9
				l-3.2,3.2l-2.1,4.9l-1.6-1.6L633,40h-3.7v2.4h4.7l1.7-1.7l1.9,1.9l7.2-3l8.6-8.6V45.5z M660.1,20.8l-0.8,0.8l-2-2l0.8-0.8
				c0.5-0.5,1.2-0.5,1.7,0l0.4,0.4C660.5,19.6,660.5,20.3,660.1,20.8L660.1,20.8z"/>
			<path class="st0" d="M633.9,19.1h12.4v2.4h-12.4V19.1z"/>
		</g>
	</g>
	<g>
		<circle class="st1" cx="640" cy="55.9" r="15.3"/>
		<g>
			<g>
				<linearGradient id="SVGID_8_" gradientUnits="userSpaceOnUse" x1="619.6501" y1="67.6483" x2="648.5049" y2="50.989">
					<stop  offset="0" style="stop-color:#123453"/>
					<stop  offset="1" style="stop-color:#2BC600"/>
				</linearGradient>
				<path class="st10" d="M640,72c-8.9,0-16.1-7.2-16.1-16.1s7.2-16.1,16.1-16.1s16.1,7.2,16.1,16.1S648.9,72,640,72z M640,41.3
					c-8,0-14.6,6.5-14.6,14.6S632,70.5,640,70.5s14.6-6.5,14.6-14.6S648,41.3,640,41.3z"/>
			</g>
		</g>
		<g>
			<path class="st3" d="M644.5,63.8c0-0.8-0.7-1.5-1.5-1.5h-6c-0.8,0-1.5,0.7-1.5,1.5v0.5h8.9V63.8z"/>
			<path class="st3" d="M647.5,51.4v-1h-6.1c-0.2-0.4-0.5-0.8-0.9-0.9v-2.1h-1v2.1c-0.4,0.2-0.8,0.5-0.9,0.9h-6.1v1h1.2l-2.2,5.5
				c0,1.4,1.1,2.5,2.5,2.5h1c1.4,0,2.5-1.1,2.5-2.5l-2.2-5.5h3.4c0.2,0.4,0.5,0.8,0.9,0.9v7.1c-1,0.2-1.7,1-1.9,1.9h4.9
				c-0.2-1-1-1.7-1.9-1.9v-7.1c0.4-0.2,0.8-0.5,0.9-0.9h3.4l-2.2,5.5c0,1.4,1.1,2.5,2.5,2.5h1c1.4,0,2.5-1.1,2.5-2.5l-2.2-5.5H647.5
				z M636.2,56.4h-3.5l1.7-4.2L636.2,56.4z M647.2,56.4h-3.5l1.7-4.2L647.2,56.4z"/>
		</g>
	</g>
</g>
<g>
	<g>
		<g>
			<g>
				<g>
					<path class="st0" d="M758.3,38.2c-1.1-1.2-2.1-2.5-2.8-3.9c0.5-0.6,0.8-1.4,0.8-2.2v-7.1c0-3.2-2.6-5.8-5.8-5.8H747h-1.2
						c-1.5,0-2.8,0.6-3.9,1.5c-0.8-2.2-3-3.8-5.5-3.8H733h-5.8c-3.2,0-5.8,2.6-5.8,5.8V32c0,1.9,1.6,3.5,3.5,3.5
						c0.6,0,1.1-0.1,1.6-0.4c0.1,0.1,0.2,0.1,0.3,0.2l1.6,0.7v7.7c0,1.9,1.6,3.5,3.5,3.5h16.3c1.9,0,3.5-1.6,3.5-3.5v-3.6h5.8
						c0.5,0,0.9-0.3,1.1-0.7S758.6,38.5,758.3,38.2z M742.3,27.4v-2.4c0-1.9,1.6-3.5,3.5-3.5h4.7c1.9,0,3.5,1.6,3.5,3.5V32
						c0,0.6-0.5,1.2-1.2,1.2s-1.2-0.5-1.2-1.2c0-0.2,0-4,0-4.7c0-0.6-0.5-1.2-1.2-1.2c-0.6,0-1.2,0.5-1.2,1.2v1l-5.8,2.5
						c0,0,0,0,0,0c0-1.2-0.5-2.3-1.2-3.1C742.3,27.6,742.3,27.5,742.3,27.4z M741.2,30.8c0,1.3-1,2.3-2.3,2.3s-2.3-1-2.3-2.3
						c0-1.3,1-2.3,2.3-2.3S741.2,29.6,741.2,30.8z M727.2,23.8c-0.6,0-1.2,0.5-1.2,1.2c0,1.4,0,5.8,0,7.1c0,0.6-0.5,1.2-1.2,1.2
						s-1.2-0.5-1.2-1.2v-9.4c0-1.9,1.6-3.5,3.5-3.5h9.3c1.9,0,3.5,1.6,3.5,3.5c0,1.2,0,3,0,3.7c-0.4-0.1-0.8-0.1-1.2-0.1
						c-2.6,0-4.7,2.1-4.7,4.7c0,0,0,0,0,0l-5.8-2.5v-3.4C728.4,24.3,727.8,23.8,727.2,23.8z M733,44.9h-1.2c-0.6,0-1.2-0.5-1.2-1.2
						V37l2.3,1V44.9z M742.3,37.2v7.7h-7v-7.7c0-0.5-0.3-0.9-0.7-1.1c-0.7-0.3-5.9-2.5-6.5-2.8c0.2-0.4,0.3-0.9,0.3-1.3v-1.1l7,3
						c0.9,1,2.1,1.6,3.5,1.6s2.7-0.6,3.5-1.6l7-3V32c0,0.5,0.1,0.9,0.3,1.3l-6.5,2.8C742.6,36.3,742.3,36.7,742.3,37.2z M750.5,37.8
						c-0.6,0-1.2,0.5-1.2,1.2v4.7c0,0.6-0.5,1.2-1.2,1.2h-3.5V38l6-2.6c0.2-0.1,0.3-0.2,0.4-0.3c0.5,0.3,1.1,0.4,1.7,0.4
						c0.2,0,0.4,0,0.7-0.1c0.4,0.8,0.9,1.6,1.5,2.4H750.5z"/>
				</g>
			</g>
			<g>
				<g>
					<path class="st0" d="M733,7.5c-2.6,0-4.7,2.1-4.7,4.7s2.1,4.7,4.7,4.7c2.6,0,4.7-2.1,4.7-4.7S735.6,7.5,733,7.5z M733,14.5
						c-1.3,0-2.3-1-2.3-2.3s1-2.3,2.3-2.3s2.3,1,2.3,2.3S734.3,14.5,733,14.5z"/>
				</g>
			</g>
			<g>
				<g>
					<path class="st0" d="M747,9.8c-2.6,0-4.7,2.1-4.7,4.7s2.1,4.7,4.7,4.7c2.6,0,4.7-2.1,4.7-4.7S749.5,9.8,747,9.8z M747,16.8
						c-1.3,0-2.3-1-2.3-2.3s1-2.3,2.3-2.3s2.3,1,2.3,2.3S748.3,16.8,747,16.8z"/>
				</g>
			</g>
		</g>
	</g>
	<g>
		<circle class="st1" cx="740" cy="56" r="15.3"/>
		<g>
			<g>
				<linearGradient id="SVGID_9_" gradientUnits="userSpaceOnUse" x1="719.7148" y1="67.6621" x2="748.4778" y2="51.0557">
					<stop  offset="0" style="stop-color:#123453"/>
					<stop  offset="1" style="stop-color:#2BC600"/>
				</linearGradient>
				<path class="st11" d="M740,72c-8.9,0-16-7.2-16-16s7.2-16,16-16s16,7.2,16,16S748.9,72,740,72z M740,41.4
					c-8,0-14.5,6.5-14.5,14.5S732,70.5,740,70.5S754.5,64,754.5,56S748,41.4,740,41.4z"/>
			</g>
		</g>
		<g>
			<path class="st3" d="M744.5,63.9c0-0.8-0.7-1.5-1.5-1.5H737c-0.8,0-1.5,0.7-1.5,1.5v0.5h8.9V63.9z"/>
			<path class="st3" d="M747.5,51.5v-1h-6.1c-0.1-0.4-0.5-0.7-0.9-0.9v-2.1h-1v2.1c-0.4,0.1-0.7,0.5-0.9,0.9h-6.1v1h1.2l-2.2,5.4
				c0,1.4,1.1,2.5,2.5,2.5h1c1.4,0,2.5-1.1,2.5-2.5l-2.2-5.4h3.4c0.1,0.4,0.5,0.7,0.9,0.9v7.1c-1,0.2-1.7,1-1.9,1.9h4.9
				c-0.2-1-1-1.7-1.9-1.9v-7.1c0.4-0.1,0.7-0.5,0.9-0.9h3.3l-2.2,5.4c0,1.4,1.1,2.5,2.5,2.5h1c1.4,0,2.5-1.1,2.5-2.5l-2.2-5.4H747.5
				z M736.3,56.4h-3.5l1.7-4.2L736.3,56.4z M747.2,56.4h-3.5l1.7-4.2L747.2,56.4z"/>
		</g>
	</g>
</g>
<g>
	<g>
		<path class="st0" d="M854.9,28.7v-0.6c0-1.6-1.3-3-3-3h-5.1c-0.1-0.6-0.4-1.2-0.8-1.7c-0.2-0.2-0.4-0.3-0.6-0.5v-2.8
			c2.2-1.2,3.6-3.5,3.6-6.1c0-3-1.9-5.6-4.8-6.6c-0.7-0.2-1.4,0.3-1.4,1V14h-1.5V8.6c0-0.7-0.7-1.3-1.4-1c-2.8,0.9-4.8,3.6-4.8,6.6
			c0,2.6,1.5,4.9,3.6,6.1v2.4c-1.4,0.1-2.5,0.7-2.8,1l-2.8,2.5h-7.1c-0.6,0-1.1,0.5-1.1,1.1v13.7c0,0.6,0.5,1.1,1.1,1.1h5.4
			c1.3,0,2.7,0.7,4.1,1.4c1.1,0.6,2.5,1.4,4.6,1.4h9.5c1.6,0,3-1.3,3-3v-0.6c0-0.5-0.1-1-0.4-1.4c0.7-0.5,1.1-1.4,1.1-2.3v-0.6
			c0-0.5-0.1-1-0.4-1.4c0.7-0.5,1.1-1.4,1.1-2.3v-0.6c0-0.5-0.1-1-0.4-1.4C854.5,30.5,854.9,29.6,854.9,28.7L854.9,28.7z
			 M852.7,28.1v0.6c0,0.4-0.4,0.8-0.8,0.8c-0.6,0-4.4,0-5,0v-2.2h5C852.4,27.3,852.7,27.7,852.7,28.1L852.7,28.1z M852,32.5v0.6
			c0,0.4-0.4,0.8-0.8,0.8c-0.5,0-3.9,0-4.4,0c0-0.2,0-0.4,0-0.6v-1.6h4.3C851.7,31.7,852,32,852,32.5L852,32.5z M851.3,36.8v0.6
			c0,0.4-0.4,0.8-0.8,0.8c-0.5,0-4.1,0-4.7,0c-0.6,0-1.1-0.5-1.1-1.1s0.5-1.1,1.1-1.1h0h4.7C850.9,36.1,851.3,36.4,851.3,36.8
			L851.3,36.8z M837.4,14.1c0-1.5,0.7-2.8,1.8-3.7v3.7c0,1.1,0.9,2.1,2.1,2.1h1.7c1.1,0,2.1-0.9,2.1-2.1v-3.7
			c1.1,0.9,1.8,2.2,1.8,3.7c0,1.9-1.2,3.7-3,4.4c-0.4,0.2-0.7,0.6-0.7,1v3.1h-2.2v-3.1c0-0.4-0.3-0.8-0.7-1
			C838.6,17.8,837.4,16,837.4,14.1L837.4,14.1z M836.7,41.5c-1.5-0.8-3.3-1.7-5.1-1.7h-4.3V28.3h6.4c0.3,0,0.5-0.1,0.7-0.3l3.1-2.7
			c0.5-0.3,1.1-0.5,1.8-0.5h4.7c0.4,0,0.8,0.3,0.8,0.8v7.8c0,0.6-0.5,1.1-1.1,1.1c-0.6,0-1.1-0.5-1.1-1.1v-3.8c0-0.6-0.4-1.1-1-1.1
			c-0.6,0-1.1,0.3-1.2,0.9c-0.1,0.2-0.6,1.8-3.3,1.8c-0.6,0-1.1,0.5-1.1,1.1s0.5,1.1,1.1,1.1c1.4,0,2.5-0.3,3.3-0.8v0.9
			c0,1.5,1,2.7,2.3,3.1c-0.2,1,0.1,2.1,0.8,2.9c-0.8,0.9-1,2.2-0.6,3.3h-2.5C838.8,42.6,837.8,42.1,836.7,41.5L836.7,41.5z
			 M850.6,41.8c0,0.4-0.4,0.8-0.8,0.8h-4h0c-0.6,0-1.1-0.5-1.1-1.1s0.5-1.1,1.1-1.1h4c0.4,0,0.8,0.4,0.8,0.8V41.8z"/>
	</g>
</g>
<g>
	<circle class="st1" cx="840" cy="55.8" r="15.4"/>
	<g>
		<g>
			<linearGradient id="SVGID_10_" gradientUnits="userSpaceOnUse" x1="819.5322" y1="67.623" x2="848.5542" y2="50.8672">
				<stop  offset="0" style="stop-color:#123453"/>
				<stop  offset="1" style="stop-color:#2BC600"/>
			</linearGradient>
			<path class="st12" d="M840,72c-8.9,0-16.2-7.3-16.2-16.2s7.3-16.2,16.2-16.2s16.2,7.3,16.2,16.2S848.9,72,840,72z M840,41.2
				c-8.1,0-14.7,6.6-14.7,14.7s6.6,14.7,14.7,14.7s14.7-6.6,14.7-14.7S848.1,41.2,840,41.2z"/>
		</g>
	</g>
	<g>
		<path class="st3" d="M844.5,63.8c0-0.8-0.7-1.5-1.5-1.5h-6c-0.8,0-1.5,0.7-1.5,1.5v0.5h9V63.8z"/>
		<path class="st3" d="M847.5,51.3v-1h-6.1c-0.2-0.4-0.5-0.8-0.9-0.9v-2.1h-1v2.1c-0.4,0.2-0.8,0.5-0.9,0.9h-6.1v1h1.2l-2.2,5.5
			c0,1.4,1.1,2.5,2.5,2.5h1c1.4,0,2.5-1.1,2.5-2.5l-2.3-5.5h3.4c0.2,0.4,0.5,0.8,0.9,0.9v7.1c-1,0.2-1.7,1-1.9,1.9h4.9
			c-0.2-1-1-1.7-1.9-1.9v-7.1c0.4-0.2,0.8-0.5,0.9-0.9h3.4l-2.2,5.5c0,1.4,1.1,2.5,2.5,2.5h1c1.4,0,2.5-1.1,2.5-2.5l-2.3-5.5H847.5z
			 M836.2,56.3h-3.5l1.7-4.2L836.2,56.3z M847.3,56.3h-3.5l1.7-4.2L847.3,56.3z"/>
	</g>
</g>
<g>
	<g>
		<path class="st0" d="M950.7,32.8c0.6-0.8,1-1.9,1-3l0.2-15.5c0-1.9-1.5-3.4-3.4-3.5c-0.4,0-0.9,0.1-1.3,0.2
			c-0.4-1.5-1.7-2.5-3.3-2.6c-0.7,0-1.3,0.2-1.9,0.5c-0.6-0.8-1.6-1.3-2.7-1.4c-1.3,0-2.5,0.7-3.1,1.8c-0.5-0.2-1-0.4-1.5-0.4
			c-1.9,0-3.4,1.5-3.5,3.4l0,3.3c-1.8,0.9-3.1,2.8-3.1,5l-0.1,8.1c0,1.5,0.6,2.9,1.8,3.9l1.9,1.6l0,2.1l-1.1,0
			c-0.6,0-1.1,0.5-1.2,1.1l-0.1,7.8c0,0.6,0.5,1.1,1.1,1.2l19.8,0.3c0.6,0,1.1-0.5,1.2-1.1l0.1-7.8c0-0.6-0.5-1.1-1.1-1.2l-1.1,0
			l0-2.3L950.7,32.8z M947.3,14.3c0-0.6,0.5-1.1,1.2-1.1c0.6,0,1.1,0.5,1.1,1.2l0,3c0,0.6-0.5,1.1-1.2,1.1c-0.6,0-1.1-0.5-1.1-1.2
			L947.3,14.3z M942.8,12c0-0.6,0.5-1.1,1.2-1.1c0.6,0,1.1,0.5,1.1,1.2l-0.1,6.1c0,0.6-0.5,1.1-1.2,1.1c-0.6,0-1.1-0.5-1.1-1.2
			L942.8,12z M938.2,11.2c0-0.6,0.5-1.1,1.2-1.1s1.1,0.5,1.1,1.2l-0.1,4.4c-0.4-0.1-0.7-0.2-1.1-0.2l-1.1,0L938.2,11.2z M933.7,12.6
			c0-0.6,0.5-1.1,1.2-1.1c0.6,0,1.1,0.5,1.1,1.2l0,2.7l-1.9,0c-0.1,0-0.3,0-0.4,0L933.7,12.6z M949.2,44.6l-17.5-0.2l0.1-5.5
			l17.5,0.2L949.2,44.6z M948.8,31.4l-1.5,2c-0.2,0.2-0.2,0.4-0.2,0.7l0,2.7l-12.9-0.2l0-2.7c0-0.3-0.1-0.7-0.4-0.9l-2.4-1.9
			c-0.6-0.5-1-1.3-1-2.1l0.1-8.1c0-1.9,1.6-3.4,3.5-3.4l5.3,0.1c0.6,0,1.1,0.5,1.1,1.2c0,0.6-0.5,1.1-1.2,1.1l-4.6-0.1
			c-0.6,0-1.1,0.5-1.2,1.1l-0.1,4.6c0,0.6,0.5,1.1,1.1,1.2c1.9,0,3.4,1.6,3.4,3.5c0,0.6,0.5,1.1,1.1,1.2c0.6,0,1.1-0.5,1.2-1.1
			c0-2.8-1.9-5.1-4.5-5.6l0-2.4l3.4,0c1.1,0,2.1-0.5,2.7-1.3c0.5,0.4,1.2,0.6,1.9,0.6c1.1,0,2.1-0.5,2.7-1.3
			c0.5,0.4,1.2,0.6,1.9,0.6c0.4,0,0.8-0.1,1.1-0.2l-0.1,9.2C949.4,30.4,949.2,31,948.8,31.4L948.8,31.4z"/>
	</g>
</g>
<g>
	<circle class="st1" cx="940" cy="55.7" r="15.5"/>
	<g>
		<g>
			<linearGradient id="SVGID_11_" gradientUnits="userSpaceOnUse" x1="919.3835" y1="67.5913" x2="948.6163" y2="50.7138">
				<stop  offset="0" style="stop-color:#123453"/>
				<stop  offset="1" style="stop-color:#2BC600"/>
			</linearGradient>
			<path class="st13" d="M940,72c-9,0-16.3-7.3-16.3-16.3S931,39.4,940,39.4s16.3,7.3,16.3,16.3S949,72,940,72z M940,40.9
				c-8.1,0-14.8,6.6-14.8,14.8s6.6,14.8,14.8,14.8s14.8-6.6,14.8-14.8S948.1,40.9,940,40.9z"/>
		</g>
	</g>
	<g>
		<path class="st3" d="M944.5,63.7c0-0.8-0.7-1.5-1.5-1.5h-6c-0.8,0-1.5,0.7-1.5,1.5v0.5h9.1V63.7z"/>
		<path class="st3" d="M947.6,51.2v-1h-6.2c-0.2-0.4-0.5-0.8-0.9-0.9v-2.1h-1v2.1c-0.4,0.2-0.8,0.5-0.9,0.9h-6.2v1h1.3l-2.3,5.5
			c0,1.4,1.1,2.5,2.5,2.5h1c1.4,0,2.5-1.1,2.5-2.5l-2.3-5.5h3.4c0.2,0.4,0.5,0.8,0.9,0.9v7.2c-1,0.2-1.8,1-2,2h4.9c-0.2-1-1-1.8-2-2
			v-7.2c0.4-0.2,0.8-0.5,0.9-0.9h3.4l-2.3,5.5c0,1.4,1.1,2.5,2.5,2.5h1c1.4,0,2.5-1.1,2.5-2.5l-2.3-5.5H947.6z M936.2,56.2h-3.5
			l1.8-4.2L936.2,56.2z M947.3,56.2h-3.5l1.8-4.2L947.3,56.2z"/>
	</g>
</g>
<g>
	<g>
		<g>
			<path class="st0" d="M1020.6,48.6c-0.4-0.4-1-0.4-1.4,0c-0.4,0.4-0.4,1,0,1.4l0,0c0.2,0.2,0.5,0.3,0.7,0.3c0.3,0,0.5-0.1,0.7-0.3
				C1021,49.6,1021,49,1020.6,48.6L1020.6,48.6z"/>
			<path class="st0" d="M1051.7,37.5L1051.7,37.5c-0.6,0-1,0.4-1,1c0,0.6,0.4,1,1,1h0c0.6,0,1-0.4,1-1
				C1052.7,37.9,1052.2,37.5,1051.7,37.5z"/>
			<path class="st0" d="M1044.3,16.3c-0.8-0.8-2.1-0.8-2.8,0c-0.8,0.8-0.8,2.1,0,2.8c0.4,0.4,0.9,0.6,1.4,0.6c0.2,0,0.3,0,0.5-0.1
				l0.2,0.2c0.2,0.2,0.5,0.3,0.7,0.3c0.3,0,0.5-0.1,0.7-0.3c0.4-0.4,0.4-1,0-1.4l-0.2-0.2C1045,17.6,1044.8,16.8,1044.3,16.3z"/>
			<path class="st0" d="M1028.4,31.4c0.6,0,1-0.4,1-1v-0.3c0.6-0.3,1-1,1-1.7c0-1.1-0.9-2-2-2c-1.1,0-2,0.9-2,2c0,0.7,0.4,1.4,1,1.7
				v0.3C1027.3,30.9,1027.8,31.4,1028.4,31.4z"/>
			<path class="st0" d="M1051.7,13.6c-1.2,0-2.4,0.2-3.5,0.5l-2.3-2.3c-1.2-1.2-2.9-1.4-3.9-0.4l-2,2l-0.4-0.4
				c0.5-0.8,0.4-1.8-0.3-2.5l-1.8-1.8c-0.8-0.8-2.1-0.8-2.8,0l-0.9,0.9c-0.1,0.1-0.3,0.3-0.4,0.5h-1.8c-0.1-0.2-0.2-0.3-0.3-0.4
				l-0.9-0.9c-0.8-0.8-2.1-0.8-2.8,0l-1.8,1.8c-0.8,0.8-0.8,2.1,0,2.8l0.9,0.9c0.2,0.2,0.5,0.4,0.9,0.5v1.6c-0.9,0.2-1.6,1-1.6,2
				v2.6c0,1,0.7,1.8,1.6,2v0.4h-2.9c-1.4,0-2.5,1.3-2.5,3v3.3c-1,0.6-2,1.3-2.8,2.1c-4.2,4.2-5,10.7-2,15.7c0.2,0.3,0.5,0.5,0.9,0.5
				c0.2,0,0.3,0,0.5-0.1c0.5-0.3,0.6-0.9,0.4-1.4c-2.5-4.3-1.8-9.8,1.7-13.3c0.8-0.8,1.8-1.5,2.8-2c0.4-0.2,0.6-0.5,0.6-0.9v-3.9
				c0-0.7,0.3-1,0.5-1h7.8c0.1,0,0.5,0.4,0.5,1v6.1h-4.3c-4.7,0-8.4,3.8-8.4,8.4c0,4.7,3.8,8.4,8.4,8.4c1.3,0,2.5-0.3,3.6-0.8
				c0.5-0.2,1.1,0.1,1.4,0.6c0.2,0.3,0.2,0.6,0.1,1c-0.1,0.3-0.2,0.5-0.5,0.7c-3.2,1.5-7.1,1.4-10.3-0.4c-0.5-0.3-1.1-0.1-1.4,0.4
				c-0.3,0.5-0.1,1.1,0.4,1.4c2,1.2,4.3,1.8,6.6,1.8c3.4,0,6.7-1.3,9.2-3.8c2.4-2.4,3.8-5.7,3.8-9.2c0-3.5-1.3-6.7-3.8-9.2
				c-0.8-0.8-1.8-1.6-2.8-2.1v-3.3c0-1.7-1.1-3-2.5-3h-2.9v-0.4c0.9-0.2,1.6-1,1.6-2v-2.6c0-1-0.7-1.8-1.6-2v-2.1l1.8-1.8
				c0.1-0.1,0.2-0.3,0.3-0.4h1.9c0.1,0.1,0.2,0.2,0.3,0.4l1.8,1.8c0.4,0.4,0.9,0.6,1.4,0.6c0.4,0,0.8-0.1,1.1-0.3l0.4,0.4l-2,2
				c-0.5,0.5-0.7,1.2-0.6,2c0.1,0.7,0.5,1.3,1,1.9l2.3,2.3c-0.3,1.1-0.5,2.3-0.5,3.5c0,5.9,4,11.1,9.7,12.5c0.1,0,0.2,0,0.3,0
				c0.4,0,0.9-0.3,1-0.8c0.1-0.5-0.2-1.1-0.7-1.2c-4.8-1.2-8.2-5.6-8.2-10.6c0-1.2,0.2-2.3,0.6-3.4c0.1-0.4,0-0.8-0.2-1.1l-2.7-2.7
				c-0.2-0.2-0.4-0.5-0.4-0.8c0-0.2,0-0.3,0-0.3l5.5-5.5c0.1-0.1,0.6-0.1,1,0.4l4.3,4.3l-3.1,3.1c0,0,0,0,0,0
				c-3.3,3.3-3.3,8.6,0,11.9c1.6,1.6,3.8,2.5,6,2.5c2.2,0,4.3-0.8,6-2.5c0.9-0.9,1.6-2,2-3.1c0.3-0.5,0.9-0.7,1.4-0.6
				c0.3,0.1,0.6,0.3,0.8,0.6c0.2,0.3,0.2,0.6,0.1,0.8c-1.2,3.4-4,6-7.6,7c-0.5,0.1-0.9,0.7-0.7,1.2c0.1,0.5,0.5,0.8,1,0.8
				c0.1,0,0.2,0,0.3,0c5.7-1.5,9.7-6.6,9.7-12.5C1064.6,19.4,1058.8,13.6,1051.7,13.6z M1034.7,33.4v-1.5c0.5,0.4,1,0.8,1.4,1.2
				c2.1,2.1,3.2,4.8,3.2,7.7c0,2.9-1.1,5.7-3.2,7.7c-0.2,0.2-0.4,0.3-0.5,0.5c-0.1-0.4-0.2-0.7-0.4-1c-0.3-0.4-0.6-0.8-1-1.1
				c1.6-1.5,2.6-3.7,2.6-6.1c0-2.6-1.2-4.9-3-6.4C1034.3,34.3,1034.7,33.9,1034.7,33.4z M1034.8,40.8c0,3.5-2.9,6.4-6.4,6.4
				c-3.5,0-6.4-2.9-6.4-6.4c0-3.5,2.9-6.4,6.4-6.4C1031.9,34.4,1034.8,37.3,1034.8,40.8z M1029,20.8h-1.2v-2.6h1.2V20.8
				C1029,20.8,1029,20.8,1029,20.8z M1027.9,12.7C1027.9,12.7,1027.9,12.7,1027.9,12.7C1027.9,12.7,1027.9,12.7,1027.9,12.7
				l-0.9-0.9l1.8-1.8l0.9,0.9L1027.9,12.7z M1037,12.7l-1.8-1.8c0,0,0,0,0,0l0.8-0.8l1.8,1.8L1037,12.7z M1056.2,31.1
				c-2.5,2.5-6.6,2.5-9.1,0c-2.5-2.5-2.5-6.6,0-9.1c1.3-1.3,2.9-1.9,4.5-1.9c1.6,0,3.3,0.6,4.5,1.9
				C1058.7,24.5,1058.7,28.6,1056.2,31.1z M1061.6,26.8c-0.5-0.1-1-0.1-1.5-0.1c0.1-2.2-0.8-4.5-2.5-6.2c-1.8-1.8-4.3-2.6-6.7-2.4
				c0.1-0.2,0.2-0.4,0.2-0.6c0-0.3-0.1-0.5-0.3-0.7l-1.1-1.1c0.6-0.1,1.2-0.2,1.8-0.2c6,0,10.9,4.9,10.9,10.9c0,0.3,0,0.5,0,0.7
				C1062.3,27.1,1061.9,26.9,1061.6,26.8z"/>
		</g>
	</g>
	<g>
		<circle class="st1" cx="1040" cy="55.9" r="15.2"/>
		<g>
			<g>
				<linearGradient id="SVGID_12_" gradientUnits="userSpaceOnUse" x1="1019.7927" y1="67.5474" x2="1048.4453" y2="51.0048">
					<stop  offset="0" style="stop-color:#123453"/>
					<stop  offset="1" style="stop-color:#2BC600"/>
				</linearGradient>
				<path class="st14" d="M1040,71.9c-8.8,0-16-7.2-16-16s7.2-16,16-16s16,7.2,16,16S1048.8,71.9,1040,71.9z M1040,41.4
					c-8,0-14.5,6.5-14.5,14.5s6.5,14.5,14.5,14.5s14.5-6.5,14.5-14.5S1048,41.4,1040,41.4z"/>
			</g>
		</g>
		<g>
			<path class="st3" d="M1044.4,63.8c0-0.8-0.7-1.5-1.5-1.5h-5.9c-0.8,0-1.5,0.7-1.5,1.5v0.5h8.9V63.8z"/>
			<path class="st3" d="M1047.4,51.4v-1h-6c-0.1-0.4-0.5-0.7-0.9-0.9v-2.1h-1v2.1c-0.4,0.1-0.7,0.5-0.9,0.9h-6v1h1.2l-2.2,5.4
				c0,1.4,1.1,2.5,2.5,2.5h1c1.4,0,2.5-1.1,2.5-2.5l-2.2-5.4h3.3c0.1,0.4,0.5,0.7,0.9,0.9v7c-1,0.2-1.7,1-1.9,1.9h4.8
				c-0.2-1-1-1.7-1.9-1.9v-7c0.4-0.1,0.7-0.5,0.9-0.9h3.3l-2.2,5.4c0,1.4,1.1,2.5,2.5,2.5h1c1.4,0,2.5-1.1,2.5-2.5l-2.2-5.4H1047.4z
				 M1036.3,56.4h-3.5l1.7-4.1L1036.3,56.4z M1047.2,56.4h-3.5l1.7-4.1L1047.2,56.4z"/>
		</g>
	</g>
</g>
<rect x="-110.6" y="-126.2" class="st0" width="59.7" height="59.7"/>
<rect x="-21.9" y="-126.2" class="st15" width="59.7" height="59.7"/>
</svg>
